<svg width="224" height="126" viewBox="0 0 224 126" fill="none" xmlns="http://www.w3.org/2000/svg">
<path d="M0 0H224V125.49H0V0Z" fill="#F3F3F3"/>
<path fill-rule="evenodd" clip-rule="evenodd" d="M222.745 1.2549H1.2549V124.235H222.745V1.2549ZM0 0V125.49H224V0H0Z" fill="#E1E1E1"/>
<path d="M140.549 0H224V125.49H140.549V0Z" fill="white"/>
<path fill-rule="evenodd" clip-rule="evenodd" d="M222.745 1.2549H141.804V124.235H222.745V1.2549ZM140.549 0V125.49H224V0H140.549Z" fill="#E1E1E1"/>
<path d="M0 0H23.8431V125.49H0V0Z" fill="white"/>
<path fill-rule="evenodd" clip-rule="evenodd" d="M22.5882 1.2549H1.2549V124.235H22.5882V1.2549ZM0 0V125.49H23.8431V0H0Z" fill="#E1E1E1"/>
<path d="M34.5098 10.666H129.882V125.49H34.5098V10.666Z" fill="white"/>
<path fill-rule="evenodd" clip-rule="evenodd" d="M128.627 11.9209H35.7647V124.235H128.627V11.9209ZM34.5098 10.666V125.49H129.882V10.666H34.5098Z" fill="#E1E1E1"/>
<path d="M6.90234 10.0352H16.3141V24.4665H6.90234V10.0352Z" fill="#E1E1E1"/>
<path fill-rule="evenodd" clip-rule="evenodd" d="M6.58838 9.72266H16.6276V24.7815H6.58838V9.72266ZM7.21583 10.3501V24.154H16.0001V10.3501H7.21583Z" fill="#E1E1E1"/>
<path d="M6.90234 31.3701H16.3141V45.8015H6.90234V31.3701Z" fill="#E1E1E1"/>
<path d="M6.90234 52.7041H16.3141V67.1355H6.90234V52.7041Z" fill="#E1E1E1"/>
<path d="M6.90234 74.0361H16.3141V88.4675H6.90234V74.0361Z" fill="#E1E1E1"/>
<path d="M148.079 26.3535H166.275V30.7457H148.079V26.3535Z" fill="#E1E1E1"/>
<path d="M148.079 11.9219H166.275V16.314H148.079V11.9219Z" fill="#E1E1E1"/>
<path d="M170.667 11.9219H189.49V16.314H170.667V11.9219Z" fill="#E1E1E1"/>
<path d="M193.882 11.9219H212.078V16.314H193.882V11.9219Z" fill="#E1E1E1"/>
<path d="M148.079 35.1377H166.275V40.1573H148.079V35.1377Z" fill="#E1E1E1"/>
<path d="M148.079 44.5479H166.275V48.94H148.079V44.5479Z" fill="#E1E1E1"/>
<path d="M148.079 52.707H166.275V57.7266H148.079V52.707Z" fill="#E1E1E1"/>
<path d="M148.079 62.1182H166.275V66.5103H148.079V62.1182Z" fill="#E1E1E1"/>
<path d="M148.079 70.9014H166.275V75.2935H148.079V70.9014Z" fill="#E1E1E1"/>
<path d="M148.079 79.6855H166.275V84.7052H148.079V79.6855Z" fill="#E1E1E1"/>
<path d="M175.686 26.3535H215.215V30.7457H175.686V26.3535Z" fill="#E1E1E1"/>
<path d="M175.686 35.1377H215.215V40.1573H175.686V35.1377Z" fill="#E1E1E1"/>
<path d="M175.686 44.5479H215.215V48.94H175.686V44.5479Z" fill="#E1E1E1"/>
<path d="M175.686 52.707H215.215V57.7266H175.686V52.707Z" fill="#E1E1E1"/>
<path d="M175.686 62.1182H215.215V66.5103H175.686V62.1182Z" fill="#E1E1E1"/>
<path d="M175.686 70.9014H215.215V75.2935H175.686V70.9014Z" fill="#E1E1E1"/>
<path d="M175.686 79.6855H215.215V84.7052H175.686V79.6855Z" fill="#E1E1E1"/>
<path fill-rule="evenodd" clip-rule="evenodd" d="M139.294 2.5098H26.3531V122.98H139.294V2.5098ZM23.8433 0V125.49H141.804V0H23.8433Z" fill="#44B78B"/>
</svg>
